ply
format ascii 1.0
element vertex 256
comment vertices
property float x
property float y
property float z
end_header
0.0644139945507049561 2.82608318328857422 -1.17978239059448242
-0.529887676239013672 4.91324424743652344 -0.290291935205459595
-0.527692258358001709 2.0225224494934082 -1.2458803653717041
1.33771300315856934 4.12243080139160156 -0.21066361665725708
-2.01018190383911133 2.8320155143737793 -0.489407628774642944
-0.810611724853515625 4.11809158325195312 -1.11896395683288574
1.11224961280822754 3.38850903511047363 -1.16940343379974365
0.93817603588104248 4.44196033477783203 -0.481559097766876221
0.811639666557312012 2.28833699226379395 -1.17199039459228516
-1.72434055805206299 2.78956317901611328 -1.23473513126373291
-1.11361455917358398 4.28856945037841797 -0.645612001419067383
0.670571625232696533 4.8163914680480957 -0.103585541248321533
0.235407605767250061 1.46135365962982178 -1.09797346591949463
-0.902541160583496094 2.43942666053771973 -1.14359807968139648
1.0647578239440918 2.69460177421569824 -1.03361296653747559
0.306560009717941284 4.70882892608642578 -0.475654631853103638
0.333417654037475586 3.92942929267883301 -1.06573903560638428
-1.1449817419052124 3.2477414608001709 -1.20378422737121582
-0.336023151874542236 3.9044959545135498 -1.09544801712036133
0.0403187796473503113 2.60649657249450684 -1.19610285758972168
0.635940611362457275 3.34324455261230469 -1.2480851411819458
1.14044630527496338 2.78251147270202637 -1.13887608051300049
-1.40061509609222412 3.07517719268798828 -0.878539800643920898
0.887679934501647949 3.99973440170288086 -0.676037847995758057
0.701638281345367432 3.57256126403808594 -1.11642158031463623
0.127402529120445251 2.57662153244018555 -1.23783540725708008
0.657292068004608154 2.22436904907226562 -1.09133076667785645
0.614427447319030762 3.98071098327636719 -0.729674100875854492
-1.00800979137420654 4.40357875823974609 -0.798360347747802734
0.106883227825164795 2.80643749237060547 -1.17321908473968506
-1.08923232555389404 4.49351692199707031 -0.359826892614364624
-0.207828998565673828 2.1634974479675293 -1.23125827312469482
-1.57365322113037109 3.53449392318725586 -0.396761685609817505
0.690876483917236328 4.46313619613647461 -0.680274128913879395
-0.248502820730209351 2.47783374786376953 -1.16650354862213135
0.906011700630187988 4.0096440315246582 -0.99326246976852417
-0.782561123371124268 4.31030464172363281 -0.586861550807952881
-0.491583466529846191 2.08991241455078125 -1.18374776840209961
-1.31541788578033447 3.99816799163818359 -0.814853191375732422
0.993298888206481934 3.65932106971740723 -0.831228733062744141
0.519570231437683105 4.37587404251098633 -0.799722254276275635
0.296730697154998779 3.05989933013916016 -1.15981924533843994
-0.405424177646636963 3.7401731014251709 -1.15757513046264648
1.62685191631317139 3.89840793609619141 -0.99397045373916626
1.13900232315063477 2.64408993721008301 -1.08194708824157715
-1.25151455402374268 3.98575401306152344 -1.03666341304779053
0.686750352382659912 4.15437841415405273 -1.04833555221557617
0.961649417877197266 4.54146099090576172 -0.432096362113952637
-1.10941421985626221 2.50304555892944336 -1.05939698219299316
0.678909420967102051 2.19314122200012207 -1.11053681373596191
-0.152612969279289246 2.35250210762023926 -1.17741119861602783
-0.0694679319858551025 3.02396297454833984 -1.17451894283294678
-0.153871476650238037 2.36580038070678711 -1.18295800685882568
0.715511322021484375 2.5764923095703125 -1.18294262886047363
0.214266180992126465 1.47741127014160156 -1.134116530418396
0.00315877236425876617 4.75725746154785156 -0.346439212560653687
0.577265799045562744 3.42487454414367676 -1.12180447578430176
0.0868544578552246094 2.8203275203704834 -1.20801997184753418
-0.0531461238861083984 2.64064884185791016 -1.15232062339782715
-0.788933634757995605 4.22429800033569336 -0.597426950931549072
1.28350162506103516 4.09772205352783203 -0.229920357465744019
0.921316862106323242 3.56811189651489258 -0.741255998611450195
-1.86278390884399414 3.37561321258544922 -0.649022579193115234
-0.974680721759796143 3.80173444747924805 -1.03454923629760742
-1.28300344944000244 3.7887732982635498 -1.17140758037567139
0.0877943485975265503 1.38265573978424072 -1.16490328311920166
1.15844917297363281 2.55350494384765625 -1.13473880290985107
-1.10072708129882812 2.45810818672180176 -1.14946341514587402
-0.685082793235778809 4.49197530746459961 -0.764033317565917969
-1.25111293792724609 4.19931459426879883 -0.422837227582931519
1.19782483577728271 2.64399170875549316 -1.05885255336761475
-0.303721904754638672 2.08643317222595215 -1.2169950008392334
0.604859888553619385 4.26319646835327148 -0.656092226505279541
0.62889176607131958 2.26046991348266602 -1.12000918388366699
1.281951904296875 4.26036596298217773 -0.954757869243621826
0.893671333789825439 4.1053314208984375 -0.391346573829650879
-0.127746164798736572 4.79301071166992188 -0.729952573776245117
0.597564280033111572 2.27696800231933594 -1.17935431003570557
0.213156849145889282 5.27719306945800781 -0.0639519691467285156
-1.16929483413696289 3.22769355773925781 -1.19872546195983887
0.587558090686798096 4.60530948638916016 -0.620575070381164551
1.09983325004577637 2.61974453926086426 -1.06946563720703125
-0.840046405792236328 4.54595470428466797 -0.407152891159057617
-0.459579348564147949 4.20772695541381836 -0.940502285957336426
0.302349239587783813 4.08915138244628906 -0.721414566040039062
-0.0406811237335205078 2.69356632232666016 -1.15820276737213135
0.747535049915313721 3.53933310508728027 -1.10122299194335938
-1.65771806240081787 3.56383299827575684 -0.614395320415496826
-1.06218171119689941 2.52206730842590332 -1.13633537292480469
0.499321222305297852 2.04965949058532715 -1.14403486251831055
-0.360551506280899048 3.94131278991699219 -1.11541223526000977
0.192063778638839722 4.38498449325561523 -0.801687836647033691
0.917577207088470459 3.99034833908081055 -0.96526634693145752
0.680545568466186523 3.53954625129699707 -1.07466733455657959
0.64065241813659668 4.07043647766113281 -0.946220099925994873
0.539137542247772217 4.1301121711730957 -0.684393525123596191
-1.2127070426940918 4.38718128204345703 -0.863734960556030273
-1.85535836219787598 3.46495413780212402 -0.489756643772125244
0.214601278305053711 4.69558620452880859 -0.447369396686553955
-0.129147350788116455 2.73546814918518066 -1.18843257427215576
1.36397922039031982 3.00492954254150391 -1.16980409622192383
-0.326650232076644897 2.04891610145568848 -1.2113877534866333
-1.45759248733520508 3.25023984909057617 -1.0533066987991333
0.916541516780853271 4.33218574523925781 -0.786918997764587402
1.09249472618103027 3.7886960506439209 -1.09185492992401123
-2.02242469787597656 2.65750408172607422 -0.68218231201171875
-0.121704928576946259 2.53732490539550781 -1.21938169002532959
0.18292534351348877 1.36926698684692383 -1.10965824127197266
0.854913055896759033 3.6947324275970459 -1.01837384700775146
0.913345277309417725 3.73332071304321289 -0.679307937622070312
-0.334584683179855347 2.47568488121032715 -1.15097880363464355
0.218475684523582458 1.39442539215087891 -1.13592696189880371
-0.649522066116333008 2.16273856163024902 -1.1410452127456665
1.13315212726593018 4.11050748825073242 -0.625906586647033691
0.570195436477661133 2.42334794998168945 -1.15441620349884033
-0.797850608825683594 4.80187606811523438 -0.772287249565124512
0.0406285226345062256 2.95494651794433594 -1.19503974914550781
-0.0397922545671463013 3.00011777877807617 -1.16698920726776123
0.931393742561340332 4.62666225433349609 -0.474576890468597412
0.748636424541473389 4.42010307312011719 -0.718719840049743652
-0.708727419376373291 4.06856918334960938 -0.908476531505584717
0.120287299156188965 2.9156336784362793 -1.150390625
0.609713315963745117 3.76534318923950195 -0.877653956413269043
0.754246115684509277 4.51732349395751953 -0.461699396371841431
0.598549127578735352 4.45920372009277344 -0.539894461631774902
-0.0572739243507385254 2.74419164657592773 -1.16920840740203857
-0.00585980713367462158 2.53261709213256836 -1.17642569541931152
-1.19543826580047607 3.50327634811401367 -1.06653666496276855
0.731467843055725098 4.0707244873046875 -0.873609006404876709
-0.317432612180709839 2.32625269889831543 -1.1907050609588623
1.18272304534912109 3.92425084114074707 -0.626419723033905029
-1.24879753589630127 3.51440596580505371 -1.20294880867004395
-1.57784056663513184 2.84512877464294434 -1.04118752479553223
-1.83434414863586426 3.79082560539245605 -0.586500287055969238
0.205133914947509766 1.44082558155059814 -1.1337658166885376
1.02641844749450684 3.47497725486755371 -0.465125918388366699
-0.332380443811416626 3.87757754325866699 -1.1458587646484375
-0.682379841804504395 4.63991117477416992 -0.628446877002716064
-0.0170333683490753174 5.06658554077148438 -0.339228510856628418
-0.514495730400085449 2.07062029838562012 -1.22567927837371826
1.17740797996520996 2.6340949535369873 -1.10521388053894043
-1.29651534557342529 4.145050048828125 -0.855038344860076904
-1.12705361843109131 3.89775490760803223 -1.17600977420806885
0.690598189830780029 2.28315949440002441 -1.13595211505889893
0.967408537864685059 4.32077121734619141 -0.893906593322753906
-0.939386606216430664 4.37825393676757812 -0.504139304161071777
-1.36149179935455322 3.62352824211120605 -0.70599055290222168
1.01307070255279541 2.66447353363037109 -1.09263384342193604
0.685752511024475098 2.23440122604370117 -1.10001742839813232
-0.185857236385345459 2.27383875846862793 -1.15774774551391602
0.683596253395080566 2.21827220916748047 -1.08186578750610352
0.123298309743404388 2.06856107711791992 -1.18743479251861572
-0.568660855293273926 4.32313442230224609 -0.883140742778778076
-0.227095186710357666 4.74430990219116211 -0.687630534172058105
0.0911903232336044312 2.63321828842163086 -1.1954047679901123
0.254310309886932373 4.46584844589233398 -0.494235992431640625
-1.36412858963012695 3.72875666618347168 -1.0951615571975708
0.767477035522460938 4.2700505256652832 -0.797822833061218262
0.138163059949874878 2.67106914520263672 -1.16208052635192871
0.700301647186279297 3.54677176475524902 -1.14031410217285156
-0.766231834888458252 4.98322963714599609 -0.606364667415618896
-0.14501112699508667 2.15888309478759766 -1.21745872497558594
-0.0352250337600708008 2.90474653244018555 -1.20073211193084717
-1.36617112159729004 3.01973724365234375 -1.14488077163696289
0.595574736595153809 4.53449201583862305 -0.524673163890838623
0.732605874538421631 4.18889236450195312 -0.525254428386688232
0.848247408866882324 4.5995941162109375 -0.476439863443374634
0.987769067287445068 4.16773462295532227 -0.679192185401916504
0.0364586412906646729 4.59258174896240234 -0.548685729503631592
1.12681174278259277 2.59128689765930176 -1.08997249603271484
1.12898731231689453 2.65561437606811523 -1.04147696495056152
-0.772134602069854736 4.7973322868347168 -0.210425883531570435
-1.99730396270751953 2.80101108551025391 -0.608965098857879639
0.947646617889404297 3.91086483001708984 -0.504239082336425781
-1.11714720726013184 4.16121482849121094 -1.06509494781494141
1.44170856475830078 3.78856062889099121 -0.387227177619934082
0.458492159843444824 2.27129435539245605 -1.14820957183837891
-1.06174218654632568 2.41971611976623535 -1.04845428466796875
0.663891434669494629 2.19245433807373047 -1.12058734893798828
-1.06473422050476074 2.54386544227600098 -1.0459587574005127
-0.657082438468933105 4.52081680297851562 -0.528717637062072754
0.269744575023651123 4.33490800857543945 -0.760732293128967285
-0.986678183078765869 4.34152841567993164 -0.640227913856506348
0.11398325115442276 3.85331201553344727 -0.702494621276855469
-0.304860293865203857 2.42062067985534668 -1.17412805557250977
0.231448739767074585 1.39701461791992188 -1.09560668468475342
0.00915622711181640625 4.51838397979736328 -0.492537260055541992
-0.647008895874023438 4.25271034240722656 -0.830430448055267334
0.355261147022247314 4.45496940612792969 -0.892430424690246582
1.03066706657409668 3.13922882080078125 -1.1610569953918457
0.533728480339050293 4.10025691986083984 -0.900306165218353271
-0.850442230701446533 4.4313960075378418 -0.588138222694396973
-1.17864763736724854 4.17407894134521484 -0.453453391790390015
0.797661960124969482 4.20583105087280273 -0.906810760498046875
0.651625871658325195 3.80818319320678711 -0.734893679618835449
-0.111187279224395752 2.90009760856628418 -1.19552242755889893
0.353360027074813843 3.12729597091674805 -1.14437317848205566
1.12467277050018311 4.05390214920043945 -0.363281667232513428
0.548021137714385986 4.14595794677734375 -0.735558092594146729
-1.08983588218688965 2.47164058685302734 -1.11523211002349854
0.101843953132629395 2.64403676986694336 -1.16778469085693359
0.7624320387840271 3.50724411010742188 -1.12782764434814453
0.761367738246917725 3.54735755920410156 -1.09253251552581787
-1.17170119285583496 3.13695478439331055 -1.20243299007415771
0.576506435871124268 3.57929277420043945 -1.06903731822967529
0.747295379638671875 2.54961013793945312 -1.16049766540527344
1.03420794010162354 2.78048586845397949 -1.16779160499572754
-1.17679774761199951 4.19893789291381836 -0.333631783723831177
1.05433034896850586 3.64459037780761719 -1.15378308296203613
0.687098860740661621 2.19383072853088379 -1.10892987251281738
0.0253233164548873901 2.39858889579772949 -1.220733642578125
-1.34278035163879395 3.91156506538391113 -0.396618634462356567
0.301252931356430054 4.63919687271118164 -0.351297140121459961
0.18055349588394165 1.50336384773254395 -1.14544200897216797
-1.15728664398193359 4.10485458374023438 -0.810173869132995605
0.0420690178871154785 2.79459929466247559 -1.17508161067962646
0.2154197096824646 4.60755634307861328 -0.590417385101318359
1.16960501670837402 2.66164493560791016 -1.14271783828735352
0.744884371757507324 3.04646062850952148 -1.16153061389923096
0.923708617687225342 3.4304497241973877 -1.12679266929626465
-1.73861920833587646 3.46092987060546875 -0.506974160671234131
0.242184996604919434 4.00777673721313477 -0.760405182838439941
0.744257628917694092 3.72109770774841309 -1.04674196243286133
1.10460948944091797 4.36227893829345703 -0.936272501945495605
-1.03492581844329834 4.47895050048828125 -0.4644966721534729
-1.65117502212524414 3.78135299682617188 -0.655663013458251953
0.693223714828491211 3.58542823791503906 -0.829175233840942383
-1.2666701078414917 3.67945694923400879 -1.10226523876190186
0.237352639436721802 2.7198026180267334 -1.16813015937805176
-0.344890207052230835 2.30755376815795898 -1.16415977478027344
0.0667534768581390381 2.72990179061889648 -1.15877723693847656
-0.440046548843383789 1.98955631256103516 -1.22652256488800049
-0.294474601745605469 2.16889381408691406 -1.23721027374267578
-1.630615234375 3.70899796485900879 -0.645859718322753906
-0.669863700866699219 4.1024632453918457 -0.906394779682159424
-0.000881522893905639648 2.77753329277038574 -1.17431759834289551
0.712779641151428223 4.10604047775268555 -0.789836585521697998
0.834780454635620117 4.18076086044311523 -0.409376144409179688
0.0788114368915557861 4.77144145965576172 -0.521346867084503174
0.258256494998931885 3.03056955337524414 -1.09419798851013184
0.672908782958984375 2.21488261222839355 -1.11055374145507812
-0.301768094301223755 2.12549424171447754 -1.21642100811004639
0.842663705348968506 4.47106218338012695 -0.498996257781982422
-0.164927259087562561 2.65304732322692871 -1.17703628540039062
0.774834811687469482 4.58519315719604492 -0.622864723205566406
0.202480778098106384 1.36779177188873291 -1.14381098747253418
0.473758965730667114 4.21935272216796875 -0.596523165702819824
0.179173469543457031 3.02341675758361816 -1.09790647029876709
0.241721659898757935 2.62301445007324219 -1.18890702724456787
-0.836541473865509033 4.46988105773925781 -0.747099518775939941
0.676853597164154053 2.87583494186401367 -1.09167206287384033
1.01690459251403809 4.33351898193359375 -0.485623478889465332
0.638898491859436035 2.19678544998168945 -1.14707076549530029
-0.346276611089706421 2.11778521537780762 -1.20879602432250977
-0.281700849533081055 3.87306094169616699 -1.11333394050598145
0.310454249382019043 2.73055148124694824 -1.15349352359771729
