ply
format ascii 1.0
element vertex 256
comment vertices
property float x
property float y
property float z
end_header
0.0979791432619094849 2.77488851547241211 -1.17568850517272949
-0.219397217035293579 4.38848733901977539 -0.324792355298995972
-0.538570702075958252 1.92662036418914795 -1.2200005054473877
1.68626248836517334 3.89822793006896973 -0.146751880645751953
-2.66585564613342285 1.17569983005523682 -0.962355434894561768
-0.944459080696105957 3.33222126960754395 -1.15818965435028076
1.05384910106658936 3.39481592178344727 -1.14148068428039551
1.69023942947387695 3.36299562454223633 -0.722540736198425293
0.658620476722717285 2.18164610862731934 -1.10387229919433594
-1.91962134838104248 2.6772763729095459 -1.22116053104400635
-1.30067002773284912 3.5715022087097168 -0.806296050548553467
0.844009816646575928 4.76259851455688477 0.0384895503520965576
0.211935088038444519 1.38275361061096191 -1.10836303234100342
-1.05376052856445312 2.50592255592346191 -1.13934516906738281
1.07460713386535645 2.65179085731506348 -1.05304825305938721
0.538442075252532959 4.3271784782409668 -0.480782598257064819
-0.454918503761291504 3.42742800712585449 -1.24336814880371094
-0.850372135639190674 2.25498342514038086 -1.30484223365783691
-0.302337765693664551 3.91311836242675781 -1.08930611610412598
0.0384353175759315491 2.58209490776062012 -1.18645083904266357
0.742738485336303711 3.56005620956420898 -1.12891721725463867
1.10646224021911621 2.65684604644775391 -1.07722318172454834
-1.41543900966644287 2.72787904739379883 -1.04569458961486816
1.21007716655731201 3.00965452194213867 -1.06629419326782227
0.755874574184417725 3.53767275810241699 -1.12198245525360107
0.111317567527294159 2.57084250450134277 -1.18850553035736084
0.655103147029876709 2.17839741706848145 -1.10008203983306885
0.296579420566558838 3.12659573554992676 -1.05061054229736328
-1.19721531867980957 3.72648429870605469 -1.00017416477203369
0.129071980714797974 2.77046751976013184 -1.17609858512878418
-1.08661258220672607 4.10627031326293945 -0.310566544532775879
-0.194046631455421448 2.19208765029907227 -1.21629440784454346
-0.819974303245544434 1.18688511848449707 -1.08846700191497803
0.890050351619720459 4.34978103637695312 -0.867785155773162842
-0.173691928386688232 2.43793487548828125 -1.17141580581665039
0.965373575687408447 3.78074407577514648 -1.12625277042388916
-0.768152236938476562 2.77324175834655762 -0.968943893909454346
-0.509395241737365723 2.02444720268249512 -1.1835930347442627
-1.94038224220275879 3.51196551322937012 -0.978564441204071045
1.26161003112792969 2.70493841171264648 -1.11998772621154785
0.430484533309936523 4.11697006225585938 -0.969819486141204834
0.244415789842605591 3.03002738952636719 -1.16241204738616943
-0.356098592281341553 3.8670806884765625 -1.112640380859375
2.55541205406188965 3.07266569137573242 -1.16818487644195557
1.11116456985473633 2.62975215911865234 -1.08346259593963623
-1.50104820728302002 3.94817280769348145 -1.13174211978912354
0.618466973304748535 4.01168107986450195 -1.1524125337600708
2.26526832580566406 3.29532957077026367 -0.745484888553619385
-1.10659229755401611 2.48165655136108398 -1.07918155193328857
0.65937507152557373 2.18162083625793457 -1.10438728332519531
-0.138692259788513184 2.32198023796081543 -1.18510127067565918
-0.0300464406609535217 2.97140383720397949 -1.18233728408813477
-0.143729090690612793 2.32954072952270508 -1.18603968620300293
0.698410689830780029 2.54443216323852539 -1.15463459491729736
0.201766222715377808 1.38476037979125977 -1.12178432941436768
0.409900039434432983 4.34247779846191406 -0.359692156314849854
0.752331554889678955 3.55733704566955566 -1.1296994686126709
0.117150247097015381 2.77209663391113281 -1.18514204025268555
0.00491958484053611755 2.62489438056945801 -1.16813027858734131
-0.970880210399627686 2.29287362098693848 -1.04949355125427246
1.57116353511810303 3.91714096069335938 -0.174277603626251221
1.17295980453491211 1.88278830051422119 -1.09552788734436035
-2.2465212345123291 1.66163527965545654 -1.11009180545806885
-0.554473757743835449 3.13861227035522461 -1.25309395790100098
-1.32747447490692139 3.61523342132568359 -1.18261909484863281
0.190050035715103149 1.37034189701080322 -1.1464076042175293
1.12016308307647705 2.62560296058654785 -1.09829413890838623
-1.10803079605102539 2.48434209823608398 -1.12759554386138916
-0.628862440586090088 3.77465152740478516 -1.01286554336547852
-1.18876183032989502 3.29051303863525391 -0.582962274551391602
1.13462173938751221 2.62117838859558105 -1.07638335227966309
-0.310911893844604492 2.06389570236206055 -1.20506191253662109
0.45895695686340332 3.64482498168945312 -0.95641016960144043
0.656504511833190918 2.1817467212677002 -1.1098628044128418
1.46992766857147217 4.25002050399780273 -0.976255834102630615
1.53983831405639648 2.46891927719116211 -0.765344381332397461
-0.654409289360046387 4.17479896545410156 -0.971073687076568604
0.660358905792236328 2.19483089447021484 -1.12142014503479004
0.472577184438705444 5.41154146194458008 -0.209526151418685913
-0.850101232528686523 2.62132835388183594 -1.27124786376953125
0.764946579933166504 4.38922691345214844 -0.790812075138092041
1.09411537647247314 2.63163042068481445 -1.07668352127075195
-0.876717925071716309 4.03850221633911133 -0.504127800464630127
0.180427610874176025 2.96507501602172852 -1.14693570137023926
-0.274360448122024536 2.67824697494506836 -1.1837766170501709
0.0277115851640701294 2.67807817459106445 -1.17018067836761475
0.747625112533569336 3.54670500755310059 -1.11725950241088867
-1.67870068550109863 2.35523223876953125 -1.00166940689086914
-1.11411046981811523 2.48840570449829102 -1.11514472961425781
0.633668243885040283 2.15854930877685547 -1.08860611915588379
-0.314366519451141357 3.91421794891357422 -1.09490883350372314
0.00781084597110748291 3.09114694595336914 -1.21613788604736328
0.891918003559112549 3.86343264579772949 -1.11031198501586914
0.756132721900939941 3.53253889083862305 -1.13212263584136963
0.584834873676300049 3.78928494453430176 -1.10382449626922607
0.760277032852172852 3.0901341438293457 -1.05763530731201172
-1.8139348030090332 4.45636129379272461 -0.96488642692565918
-2.11409568786621094 2.06961870193481445 -0.808523774147033691
0.653115153312683105 4.21224498748779297 -0.492493391036987305
-0.0317896157503128052 2.69739460945129395 -1.16208493709564209
1.46249067783355713 2.99681210517883301 -1.1214522123336792
-0.351839452981948853 2.02056980133056641 -1.20092368125915527
-1.84536063671112061 2.79580163955688477 -1.15412020683288574
1.02087879180908203 4.23458051681518555 -0.947499752044677734
1.09823203086853027 3.55575156211853027 -1.09804809093475342
-2.20765256881713867 -0.175118446350097656 -1.16716599464416504
-0.0947553515434265137 2.52245450019836426 -1.1944812536239624
0.198992833495140076 1.34705686569213867 -1.13164854049682617
0.711985290050506592 3.5514223575592041 -1.12602484226226807
0.991657495498657227 2.05365324020385742 -1.18639969825744629
-0.299590617418289185 2.42858529090881348 -1.15977442264556885
0.206611678004264832 1.34785544872283936 -1.14116847515106201
-0.899386107921600342 2.08947443962097168 -1.1564556360244751
1.66751730442047119 3.37742710113525391 -0.887414097785949707
0.652879118919372559 2.21037197113037109 -1.10658597946166992
-1.31441020965576172 4.08856105804443359 -0.984837532043457031
0.0929847210645675659 2.90707159042358398 -1.18365561962127686
0.00107793509960174561 2.9434046745300293 -1.1773219108581543
1.88023209571838379 4.01043319702148438 -0.687206745147705078
0.89005964994430542 4.34578084945678711 -0.914808690547943115
-0.737517893314361572 2.50778436660766602 -1.17600047588348389
0.141038209199905396 2.8340604305267334 -1.16388750076293945
0.255269765853881836 3.2185211181640625 -1.08679139614105225
1.39186179637908936 3.85495901107788086 -0.791213274002075195
0.763242542743682861 4.06512546539306641 -0.800216078758239746
0.0190934538841247559 2.72901010513305664 -1.17393815517425537
0.00942815095186233521 2.51387286186218262 -1.18080508708953857
-1.19806170463562012 3.23233413696289062 -1.18816447257995605
0.761278033256530762 3.91756772994995117 -1.06495189666748047
-0.291923373937606812 2.27988147735595703 -1.1985471248626709
2.21576738357543945 2.2130129337310791 -1.04249811172485352
-1.32197403907775879 3.16072535514831543 -1.23362874984741211
-1.74156451225280762 2.69337749481201172 -1.131064772605896
-2.77101278305053711 2.35765457153320312 -1.02077841758728027
0.200420454144477844 1.37032973766326904 -1.12955713272094727
1.52091240882873535 0.56291508674621582 -1.07134807109832764
-0.305903494358062744 3.91811966896057129 -1.1129993200302124
-0.234138607978820801 3.90812063217163086 -0.918754339218139648
0.0995797812938690186 5.01703023910522461 -0.293570816516876221
-0.542820572853088379 1.98291289806365967 -1.2028731107711792
1.12900006771087646 2.62883400917053223 -1.0926743745803833
-2.00322389602661133 3.57289814949035645 -1.06495773792266846
-1.27117109298706055 3.55827879905700684 -1.19595956802368164
0.66008293628692627 2.19167304039001465 -1.10891044139862061
0.960061132907867432 4.23522424697875977 -1.02400791645050049
-1.03304708003997803 3.57258176803588867 -0.729428708553314209
-0.981250464916229248 1.95572984218597412 -1.16724789142608643
1.09162271022796631 2.65646624565124512 -1.07121801376342773
0.661743283271789551 2.17920994758605957 -1.10073399543762207
-0.17424638569355011 2.26039361953735352 -1.18602836132049561
0.661807775497436523 2.17805576324462891 -1.09485757350921631
0.11321769654750824 2.0943753719329834 -1.1802901029586792
-0.728188276290893555 4.07200098037719727 -0.995505928993225098
-0.267356663942337036 4.05428981781005859 -0.949260115623474121
0.0959597602486610413 2.64180445671081543 -1.17075872421264648
1.19668006896972656 2.56507349014282227 -0.957751214504241943
-1.62845504283905029 3.36617231369018555 -1.17569029331207275
0.867589354515075684 4.00121068954467773 -1.02376806735992432
0.121648140251636505 2.66351675987243652 -1.16089069843292236
0.751757502555847168 3.54392004013061523 -1.12168896198272705
-1.40996479988098145 5.21804952621459961 -0.811816811561584473
-0.161219298839569092 2.14713287353515625 -1.20266294479370117
0.0107229277491569519 2.84387803077697754 -1.18600869178771973
-1.37143027782440186 2.11943197250366211 -1.22257411479949951
0.830410242080688477 3.58772158622741699 -0.846670031547546387
1.14859318733215332 3.10925793647766113 -0.834865808486938477
1.6463780403137207 4.03867101669311523 -0.718477010726928711
1.56387495994567871 3.35996341705322266 -0.896830558776855469
0.152684614062309265 3.31815743446350098 -0.882697999477386475
1.10736954212188721 2.62881255149841309 -1.08559834957122803
1.10496056079864502 2.62607860565185547 -1.06651854515075684
-0.882029056549072266 4.3421783447265625 -0.111110001802444458
-2.42124509811401367 0.693336725234985352 -1.08785247802734375
1.3006432056427002 2.36388063430786133 -1.0653986930847168
-1.36374211311340332 4.13932609558105469 -1.12798535823822021
2.38115978240966797 2.81003355979919434 -0.604689419269561768
0.651214540004730225 2.21941518783569336 -1.10175538063049316
-1.10671555995941162 2.48564434051513672 -1.07751607894897461
0.657552897930145264 2.1860651969909668 -1.10706996917724609
-1.11492621898651123 2.48650145530700684 -1.06763923168182373
-0.122994720935821533 3.26850509643554688 -0.854700803756713867
-0.0191751718521118164 3.52503633499145508 -1.17641341686248779
-1.10872519016265869 3.27061939239501953 -0.895078659057617188
-0.348586827516555786 0.589510917663574219 -1.37140035629272461
-0.284783720970153809 2.36726093292236328 -1.19309794902801514
0.211637869477272034 1.3520207405090332 -1.11998283863067627
0.0395935140550136566 2.80198383331298828 -0.931319057941436768
-0.855698585510253906 3.19681167602539062 -1.04766261577606201
0.272275447845458984 4.12790346145629883 -1.19097375869750977
0.974836766719818115 3.15468454360961914 -1.11123025417327881
0.470241725444793701 3.04735946655273438 -1.178619384765625
-1.01890397071838379 3.49028921127319336 -0.810955226421356201
-1.28828895092010498 3.15137386322021484 -0.644846022129058838
0.801249802112579346 4.06315279006958008 -1.04600560665130615
0.333603143692016602 2.7491145133972168 -1.07236218452453613
-0.0816135182976722717 2.84128451347351074 -1.18215692043304443
0.400651723146438599 3.16092252731323242 -1.12237560749053955
1.5272982120513916 3.53952836990356445 -0.603443145751953125
0.754918098449707031 3.22791576385498047 -1.07627570629119873
-1.10709726810455322 2.4858243465423584 -1.10985791683197021
0.105938054621219635 2.64638924598693848 -1.1617426872253418
0.735696911811828613 3.56132245063781738 -1.11057639122009277
0.743304908275604248 3.54548931121826172 -1.11490714550018311
-0.732013583183288574 1.95292675495147705 -1.32703208923339844
0.759335458278656006 3.5455629825592041 -1.12687194347381592
0.840792655944824219 2.45749497413635254 -1.11577880382537842
1.06745028495788574 2.6516726016998291 -1.08441531658172607
-1.23691928386688232 3.51674699783325195 -0.452667236328125
0.750573039054870605 3.59436845779418945 -1.1572188138961792
0.662011384963989258 2.18053627014160156 -1.10366904735565186
-0.0271964110434055328 2.43171358108520508 -1.19241142272949219
-1.4579998254776001 3.23448896408081055 -0.569637477397918701
0.66419672966003418 4.02275705337524414 -0.440289169549942017
0.185816854238510132 1.39136373996734619 -1.12151432037353516
-1.26054787635803223 3.32321381568908691 -1.05241966247558594
0.0913008451461791992 2.76481819152832031 -1.17451572418212891
0.619294643402099609 3.84020733833312988 -0.797219932079315186
1.12553572654724121 2.63626694679260254 -1.10216379165649414
0.690391898155212402 3.08958292007446289 -1.11084794998168945
0.704390645027160645 3.56285715103149414 -1.1129385232925415
-1.30439984798431396 2.02467727661132812 -0.890278637409210205
-0.245895087718963623 2.46973299980163574 -1.23061549663543701
0.760905027389526367 3.5493311882019043 -1.11278223991394043
1.24601113796234131 4.39842748641967773 -1.02460181713104248
-1.03882551193237305 3.97384905815124512 -0.596606671810150146
-1.84590673446655273 2.54036235809326172 -1.05812621116638184
0.740690827369689941 3.54487109184265137 -1.13037967681884766
-1.30841732025146484 3.48331856727600098 -1.16987526416778564
0.195982396602630615 2.69588327407836914 -1.15584743022918701
-0.321629375219345093 2.26221179962158203 -1.18747270107269287
0.102955885231494904 2.71775317192077637 -1.16646850109100342
-0.441263496875762939 1.92510092258453369 -1.21166300773620605
-0.288241326808929443 2.15968036651611328 -1.22518670558929443
-1.57967257499694824 2.37815284729003906 -1.11173069477081299
-0.813956558704376221 2.32849645614624023 -1.20347130298614502
0.0571650601923465729 2.75117206573486328 -1.17657184600830078
0.649525642395019531 3.74783587455749512 -1.01480484008789062
1.4900367259979248 2.55173802375793457 -0.755809605121612549
0.450851410627365112 4.2354435920715332 -0.636972725391387939
0.234109416604042053 2.96446919441223145 -1.1342165470123291
0.656665503978729248 2.18106174468994141 -1.10552740097045898
-0.306567728519439697 2.12535572052001953 -1.21006619930267334
1.91354131698608398 3.47699975967407227 -0.858207106590270996
-0.101158380508422852 2.61052250862121582 -1.15761077404022217
1.20144867897033691 4.63807010650634766 -0.761979043483734131
0.207482323050498962 1.34443187713623047 -1.14637219905853271
0.901919722557067871 2.12909102439880371 -1.17688155174255371
0.202810361981391907 2.9245903491973877 -1.13937008380889893
0.200373649597167969 2.63466286659240723 -1.16301298141479492
-0.843873560428619385 3.26199865341186523 -1.00143110752105713
0.629160046577453613 2.8572852611541748 -1.08894407749176025
1.46398091316223145 3.62494611740112305 -0.590074539184570312
0.657726287841796875 2.19311833381652832 -1.11326098442077637
-0.353787988424301147 2.08069109916687012 -1.20115864276885986
-0.29788506031036377 3.92377996444702148 -1.10163021087646484
0.226210996508598328 2.71762371063232422 -1.13807117938995361
