ply
format ascii 1.0
element vertex 117
comment vertices
property float x
property float y
property float z
end_header
0.0979791432619094849 2.77488851547241211 -1.17568850517272949
-0.538570702075958252 1.92662036418914795 -1.2200005054473877
0.658620476722717285 2.18164610862731934 -1.10387229919433594
0.211935088038444519 1.38275361061096191 -1.10836303234100342
-1.05376052856445312 2.50592255592346191 -1.13934516906738281
1.07460713386535645 2.65179085731506348 -1.05304825305938721
-0.302337765693664551 3.91311836242675781 -1.08930611610412598
0.0384353175759315491 2.58209490776062012 -1.18645083904266357
0.742738485336303711 3.56005620956420898 -1.12891721725463867
1.10646224021911621 2.65684604644775391 -1.07722318172454834
0.755874574184417725 3.53767275810241699 -1.12198245525360107
0.111317567527294159 2.57084250450134277 -1.18850553035736084
0.655103147029876709 2.17839741706848145 -1.10008203983306885
0.129071980714797974 2.77046751976013184 -1.17609858512878418
-0.194046631455421448 2.19208765029907227 -1.21629440784454346
-0.173691928386688232 2.43793487548828125 -1.17141580581665039
-0.509395241737365723 2.02444720268249512 -1.1835930347442627
0.244415789842605591 3.03002738952636719 -1.16241204738616943
-0.356098592281341553 3.8670806884765625 -1.112640380859375
1.11116456985473633 2.62975215911865234 -1.08346259593963623
-1.10659229755401611 2.48165655136108398 -1.07918155193328857
0.65937507152557373 2.18162083625793457 -1.10438728332519531
-0.138692259788513184 2.32198023796081543 -1.18510127067565918
-0.0300464406609535217 2.97140383720397949 -1.18233728408813477
-0.143729090690612793 2.32954072952270508 -1.18603968620300293
0.698410689830780029 2.54443216323852539 -1.15463459491729736
0.201766222715377808 1.38476037979125977 -1.12178432941436768
0.752331554889678955 3.55733704566955566 -1.1296994686126709
0.117150247097015381 2.77209663391113281 -1.18514204025268555
0.00491958484053611755 2.62489438056945801 -1.16813027858734131
0.190050035715103149 1.37034189701080322 -1.1464076042175293
1.12016308307647705 2.62560296058654785 -1.09829413890838623
-1.10803079605102539 2.48434209823608398 -1.12759554386138916
1.13462173938751221 2.62117838859558105 -1.07638335227966309
-0.310911893844604492 2.06389570236206055 -1.20506191253662109
0.656504511833190918 2.1817467212677002 -1.1098628044128418
0.660358905792236328 2.19483089447021484 -1.12142014503479004
1.09411537647247314 2.63163042068481445 -1.07668352127075195
0.0277115851640701294 2.67807817459106445 -1.17018067836761475
0.747625112533569336 3.54670500755310059 -1.11725950241088867
-1.11411046981811523 2.48840570449829102 -1.11514472961425781
0.633668243885040283 2.15854930877685547 -1.08860611915588379
-0.314366519451141357 3.91421794891357422 -1.09490883350372314
0.756132721900939941 3.53253889083862305 -1.13212263584136963
-0.0317896157503128052 2.69739460945129395 -1.16208493709564209
-0.351839452981948853 2.02056980133056641 -1.20092368125915527
-0.0947553515434265137 2.52245450019836426 -1.1944812536239624
0.198992833495140076 1.34705686569213867 -1.13164854049682617
0.711985290050506592 3.5514223575592041 -1.12602484226226807
-0.299590617418289185 2.42858529090881348 -1.15977442264556885
0.206611678004264832 1.34785544872283936 -1.14116847515106201
-0.899386107921600342 2.08947443962097168 -1.1564556360244751
0.652879118919372559 2.21037197113037109 -1.10658597946166992
0.0929847210645675659 2.90707159042358398 -1.18365561962127686
0.00107793509960174561 2.9434046745300293 -1.1773219108581543
0.141038209199905396 2.8340604305267334 -1.16388750076293945
0.0190934538841247559 2.72901010513305664 -1.17393815517425537
0.00942815095186233521 2.51387286186218262 -1.18080508708953857
-0.291923373937606812 2.27988147735595703 -1.1985471248626709
0.200420454144477844 1.37032973766326904 -1.12955713272094727
-0.305903494358062744 3.91811966896057129 -1.1129993200302124
-0.542820572853088379 1.98291289806365967 -1.2028731107711792
1.12900006771087646 2.62883400917053223 -1.0926743745803833
0.66008293628692627 2.19167304039001465 -1.10891044139862061
1.09162271022796631 2.65646624565124512 -1.07121801376342773
0.661743283271789551 2.17920994758605957 -1.10073399543762207
-0.17424638569355011 2.26039361953735352 -1.18602836132049561
0.661807775497436523 2.17805576324462891 -1.09485757350921631
0.0959597602486610413 2.64180445671081543 -1.17075872421264648
0.121648140251636505 2.66351675987243652 -1.16089069843292236
0.751757502555847168 3.54392004013061523 -1.12168896198272705
-0.161219298839569092 2.14713287353515625 -1.20266294479370117
0.0107229277491569519 2.84387803077697754 -1.18600869178771973
1.10736954212188721 2.62881255149841309 -1.08559834957122803
1.10496056079864502 2.62607860565185547 -1.06651854515075684
0.651214540004730225 2.21941518783569336 -1.10175538063049316
-1.10671555995941162 2.48564434051513672 -1.07751607894897461
0.657552897930145264 2.1860651969909668 -1.10706996917724609
-1.11492621898651123 2.48650145530700684 -1.06763923168182373
-0.284783720970153809 2.36726093292236328 -1.19309794902801514
0.211637869477272034 1.3520207405090332 -1.11998283863067627
-0.0816135182976722717 2.84128451347351074 -1.18215692043304443
0.400651723146438599 3.16092252731323242 -1.12237560749053955
-1.10709726810455322 2.4858243465423584 -1.10985791683197021
0.105938054621219635 2.64638924598693848 -1.1617426872253418
0.735696911811828613 3.56132245063781738 -1.11057639122009277
0.743304908275604248 3.54548931121826172 -1.11490714550018311
0.759335458278656006 3.5455629825592041 -1.12687194347381592
0.840792655944824219 2.45749497413635254 -1.11577880382537842
1.06745028495788574 2.6516726016998291 -1.08441531658172607
0.750573039054870605 3.59436845779418945 -1.1572188138961792
0.662011384963989258 2.18053627014160156 -1.10366904735565186
-0.0271964110434055328 2.43171358108520508 -1.19241142272949219
0.185816854238510132 1.39136373996734619 -1.12151432037353516
0.0913008451461791992 2.76481819152832031 -1.17451572418212891
1.12553572654724121 2.63626694679260254 -1.10216379165649414
0.704390645027160645 3.56285715103149414 -1.1129385232925415
0.760905027389526367 3.5493311882019043 -1.11278223991394043
0.740690827369689941 3.54487109184265137 -1.13037967681884766
0.195982396602630615 2.69588327407836914 -1.15584743022918701
-0.321629375219345093 2.26221179962158203 -1.18747270107269287
0.102955885231494904 2.71775317192077637 -1.16646850109100342
-0.441263496875762939 1.92510092258453369 -1.21166300773620605
-0.288241326808929443 2.15968036651611328 -1.22518670558929443
0.0571650601923465729 2.75117206573486328 -1.17657184600830078
0.234109416604042053 2.96446919441223145 -1.1342165470123291
0.656665503978729248 2.18106174468994141 -1.10552740097045898
-0.306567728519439697 2.12535572052001953 -1.21006619930267334
-0.101158380508422852 2.61052250862121582 -1.15761077404022217
0.207482323050498962 1.34443187713623047 -1.14637219905853271
0.202810361981391907 2.9245903491973877 -1.13937008380889893
0.200373649597167969 2.63466286659240723 -1.16301298141479492
0.629160046577453613 2.8572852611541748 -1.08894407749176025
0.657726287841796875 2.19311833381652832 -1.11326098442077637
-0.353787988424301147 2.08069109916687012 -1.20115864276885986
-0.29788506031036377 3.92377996444702148 -1.10163021087646484
0.226210996508598328 2.71762371063232422 -1.13807117938995361
